<svg height="512" viewBox="0 0 128 128" width="512" xmlns="http://www.w3.org/2000/svg"><g><circle cx="57.911" cy="72.848" fill="#eae2e1" r="38.819"/><circle cx="40.157" cy="62.266" fill="#c0b2b1" r="7.277"/><circle cx="74.656" cy="74.289" fill="#c0b2b1" r="4.746"/><circle cx="53.059" cy="97.971" fill="#8c7a7a" r="7.767"/><circle cx="29.875" cy="84.867" fill="#c0b2b1" r="3.594"/><circle cx="63.314" cy="61.092" fill="#8c7a7a" r="2.908"/><path d="m58.932 34.054a8.376 8.376 0 0 0 16.26 4.034 38.614 38.614 0 0 0 -16.26-4.034z" fill="#c0b2b1"/><path d="m81.16 19.225h13.874v13.874h-13.874z" fill="#fc4c50"/><path d="m108.908 38.583h-13.874v-13.874h13.874l-6.937 6.937z" fill="#d92328"/><path d="m76.097 16.333h5.062v46.765h-5.062z" fill="#24446f"/><g fill="#ffd248"><path d="m102.187 96.188h-.937v-.938a1.75 1.75 0 0 0 -3.5 0v.938h-.938a1.75 1.75 0 0 0 0 3.5h.938v.937a1.75 1.75 0 0 0 3.5 0v-.937h.937a1.75 1.75 0 0 0 0-3.5z"/><path d="m31.656 32.278h-.937v-.937a1.75 1.75 0 0 0 -3.5 0v.937h-.938a1.75 1.75 0 0 0 0 3.5h.938v.938a1.75 1.75 0 0 0 3.5 0v-.938h.937a1.75 1.75 0 0 0 0-3.5z"/><path d="m21.779 107.229h-.938v-.937a1.75 1.75 0 0 0 -3.5 0v.937h-.941a1.75 1.75 0 1 0 0 3.5h.937v.938a1.75 1.75 0 0 0 3.5 0v-.938h.938a1.75 1.75 0 1 0 0-3.5z"/><path d="m75.285 91.142h-.937v-.937a1.75 1.75 0 0 0 -3.5 0v.937h-.938a1.75 1.75 0 0 0 0 3.5h.938v.938a1.75 1.75 0 0 0 3.5 0v-.938h.937a1.75 1.75 0 0 0 0-3.5z"/><path d="m111.667 55.926h-.938v-.937a1.75 1.75 0 1 0 -3.5 0v.937h-.937a1.75 1.75 0 0 0 0 3.5h.937v.938a1.75 1.75 0 0 0 3.5 0v-.938h.938a1.75 1.75 0 0 0 0-3.5z"/></g></g></svg>